name Run_40002_IK.mot
datacolumns 164
datarows 4
range 2.06 2.09
endheader
time	         pelvis_tilt	         pelvis_list	     pelvis_rotation	           pelvis_tx	           pelvis_ty	           pelvis_tz	       hip_flexion_r	     hip_adduction_r	      hip_rotation_r	        knee_angle_r	       ankle_angle_r	       hip_flexion_l	     hip_adduction_l	      hip_rotation_l	        knee_angle_l	       ankle_angle_l	    lumbar_extension	      lumbar_bending	     lumbar_rotation	          arm_flex_r	           arm_add_r	           arm_rot_r	        elbow_flex_r	           pro_sup_r	          arm_flex_l	           arm_add_l	           arm_rot_l	        elbow_flex_l	           pro_sup_l	    subtalar_angle_r	         mtp_angle_r	    subtalar_angle_l	         mtp_angle_l	        wrist_flex_r	         wrist_dev_r	        wrist_flex_l	         wrist_dev_l	             LASI_tx	             LASI_ty	             LASI_tz	             RASI_tx	             RASI_ty	             RASI_tz	             LPSI_tx	             LPSI_ty	             LPSI_tz	             RPSI_tx	             RPSI_ty	             RPSI_tz	             RTH1_tx	             RTH1_ty	             RTH1_tz	             RTH2_tx	             RTH2_ty	             RTH2_tz	             RTH3_tx	             RTH3_ty	             RTH3_tz	             LTH1_tx	             LTH1_ty	             LTH1_tz	             LTH2_tx	             LTH2_ty	             LTH2_tz	             LTH3_tx	             LTH3_ty	             LTH3_tz	             RTB1_tx	             RTB1_ty	             RTB1_tz	             RTB2_tx	             RTB2_ty	             RTB2_tz	             RTB3_tx	             RTB3_ty	             RTB3_tz	             LTB1_tx	             LTB1_ty	             LTB1_tz	             LTB2_tx	             LTB2_ty	             LTB2_tz	             LTB3_tx	             LTB3_ty	             LTB3_tz	             RCAL_tx	             RCAL_ty	             RCAL_tz	             RTOE_tx	             RTOE_ty	             RTOE_tz	             RMT5_tx	             RMT5_ty	             RMT5_tz	             LCAL_tx	             LCAL_ty	             LCAL_tz	             LTOE_tx	             LTOE_ty	             LTOE_tz	             LMT5_tx	             LMT5_ty	             LMT5_tz	             LACR_tx	             LACR_ty	             LACR_tz	             RACR_tx	             RACR_ty	             RACR_tz	             CLAV_tx	             CLAV_ty	             CLAV_tz	               C7_tx	               C7_ty	               C7_tz	             RUA1_tx	             RUA1_ty	             RUA1_tz	             RUA2_tx	             RUA2_ty	             RUA2_tz	             RUA3_tx	             RUA3_ty	             RUA3_tz	             RLEL_tx	             RLEL_ty	             RLEL_tz	             RMEL_tx	             RMEL_ty	             RMEL_tz	             LUA1_tx	             LUA1_ty	             LUA1_tz	             LUA2_tx	             LUA2_ty	             LUA2_tz	             LUA3_tx	             LUA3_ty	             LUA3_tz	             LLEL_tx	             LLEL_ty	             LLEL_tz	             LMEL_tx	             LMEL_ty	             LMEL_tz	      RFAsuperior_tx	      RFAsuperior_ty	      RFAsuperior_tz	        RFAradius_tx	        RFAradius_ty	        RFAradius_tz	          RFAulna_tx	          RFAulna_ty	          RFAulna_tz	      LFAsuperior_tx	      LFAsuperior_ty	      LFAsuperior_tz	        LFAradius_tx	        LFAradius_ty	        LFAradius_tz	          LFAulna_tx	          LFAulna_ty	          LFAulna_tz	
2.06	        -13.82095540	          2.49526167	          2.83867151	          0.95501634	          0.98419280	         -0.35409008	         48.70785081	         -4.90806546	          2.44891277	        -99.87577001	          6.41382154	         10.91357782	         10.09016476	          0.73533688	        -32.05607938	         15.49443843	          0.62538535	         -3.89278925	         -9.35707521	        -36.80593650	        -22.53663200	        -10.53226279	         94.83575480	        116.92669104	        -24.93856190	        -11.53251092	        -13.03512670	        118.22497276	        100.05351026	          0.00000000	          0.00000000	          0.00000000	          0.00000000	          0.00000000	          0.00000000	          0.00000000	          0.00000000	          0.96971402	          1.03475174	         -0.49259217	          0.97641048	          1.02075097	         -0.22324811	          0.81946398	          1.09115012	         -0.40652101	          0.81597565	          1.08540300	         -0.29255676	          0.91384718	          0.91220853	         -0.16964057	          0.93805837	          0.76785466	         -0.18929269	          1.05945933	          0.65842519	         -0.18909100	          0.90030472	          0.89091545	         -0.52041334	          0.81009971	          0.74667657	         -0.47263220	          0.84788274	          0.60784505	         -0.46331012	          1.02851555	          0.45453131	         -0.24995198	          0.95171223	          0.50572299	         -0.17960594	          0.85427790	          0.39531178	         -0.24800944	          0.83739505	          0.38016678	         -0.38225457	          0.70564460	          0.32949751	         -0.42308993	          0.69474307	          0.21487876	         -0.35555479	          0.67295287	          0.43371554	         -0.23529942	          0.78695016	          0.22001390	         -0.26001647	          0.74523317	          0.24740614	         -0.16452636	          0.50981255	          0.15877022	         -0.31828627	          0.72808341	          0.06579316	         -0.31862028	          0.66143686	          0.04106871	         -0.40799480	          0.97423104	          1.50147512	         -0.52254663	          0.97071124	          1.49922649	         -0.19610897	          1.03463276	          1.46024511	         -0.32339354	          0.91571135	          1.53074829	         -0.36697450	          0.84006161	          1.43329718	         -0.14297387	          0.86353930	          1.37562631	         -0.09604404	          0.77369864	          1.32884486	         -0.05847074	          0.72383033	          1.28746990	         -0.02876878	          0.72063346	          1.25051543	         -0.11068715	          0.87906453	          1.40032804	         -0.57733331	          0.90860036	          1.32152672	         -0.59534902	          0.83793287	          1.25493424	         -0.61953511	          0.82051444	          1.19066135	         -0.63813390	          0.80347047	          1.17133733	         -0.54887259	          0.78940075	          1.19908682	         -0.01480255	          0.91451981	          1.08738497	         -0.08944825	          0.87633956	          1.06538852	         -0.03610691	          0.89248037	          1.14652707	         -0.62886531	          1.05702983	          1.17009579	         -0.53751226	          1.05649942	          1.10385121	         -0.56515749	
2.07	        -13.77732364	          1.66942827	          1.89347750	          0.95822979	          0.99166348	         -0.35361103	         50.01940034	         -3.60077581	          2.23633228	        -95.54467245	          7.03240366	          6.96209287	          8.79917582	          0.71851663	        -28.73703464	         10.56382752	          1.30032296	         -2.68127913	         -9.42474128	        -38.99950718	        -22.69561236	        -11.53297988	         96.72235018	        115.42511950	        -25.16446363	        -11.25033257	        -12.98845641	        120.84166889	         99.84242513	          0.00000000	          0.00000000	          0.00000000	          0.00000000	          0.00000000	          0.00000000	          0.00000000	          0.00000000	          0.97449237	          1.04083495	         -0.49500765	          0.97689039	          1.02968043	         -0.22296443	          0.82421031	          1.09722280	         -0.40909413	          0.81821894	          1.09338438	         -0.29506406	          0.91576487	          0.92258328	         -0.16758491	          0.94367990	          0.77814937	         -0.18897757	          1.06832263	          0.67320494	         -0.18955129	          0.90254165	          0.89555328	         -0.51920287	          0.80170827	          0.75694373	         -0.47299466	          0.83081112	          0.61642823	         -0.46316680	          1.05013757	          0.46122696	         -0.25057510	          0.96849226	          0.50529366	         -0.18132461	          0.87993891	          0.38363703	         -0.24851552	          0.80949328	          0.38836132	         -0.38413976	          0.67716539	          0.34060252	         -0.42574307	          0.66492416	          0.22502396	         -0.35920315	          0.69770906	          0.40467837	         -0.23645024	          0.83442715	          0.20477819	         -0.26217089	          0.78934111	          0.22705756	         -0.16634927	          0.48102833	          0.17537453	         -0.32352958	          0.68998077	          0.06446561	         -0.31944437	          0.62254674	          0.04287547	         -0.40879408	          0.97569535	          1.51029314	         -0.52125570	          0.96668684	          1.50759344	         -0.19539337	          1.03285062	          1.46915548	         -0.32113975	          0.91486382	          1.53840562	         -0.36660663	          0.83435419	          1.44461892	         -0.14597995	          0.85569449	          1.38644038	         -0.09768255	          0.76396556	          1.34161761	         -0.06238146	          0.71211745	          1.30124710	         -0.03433882	          0.71076523	          1.26438286	         -0.11654495	          0.88202545	          1.40865354	         -0.57742842	          0.91316027	          1.33039043	         -0.59572135	          0.84405081	          1.26302349	         -0.62145337	          0.82691674	          1.19869983	         -0.63985800	          0.80801789	          1.17958432	         -0.55043399	          0.77724117	          1.21335797	         -0.01867938	          0.90572204	          1.10366879	         -0.08977217	          0.86573146	          1.08036149	         -0.03830992	          0.90010497	          1.15873102	         -0.62838645	          1.06106038	          1.19122610	         -0.53422956	          1.06474041	          1.12467570	         -0.56076072	
2.08	        -13.71294859	          0.77943536	          0.89460404	          0.96190287	          0.99925402	         -0.35300118	         50.86667377	         -2.21640923	          1.86814175	        -90.64984589	          7.59020219	          3.14415907	          7.44097649	          0.25489578	        -25.47722237	          4.84736842	          1.95007497	         -1.37672944	         -9.29476072	        -41.24935667	        -22.71631737	        -12.63364950	         98.52596020	        113.58549286	        -25.43905232	        -11.07301979	        -12.74820387	        123.37684283	        100.00162144	          0.00000000	          0.00000000	          0.00000000	          0.00000000	          0.00000000	          0.00000000	          0.00000000	          0.00000000	          0.97991965	          1.04686609	         -0.49746696	          0.97748804	          1.03887843	         -0.22241053	          0.82960548	          1.10324336	         -0.41171065	          0.82078213	          1.10156373	         -0.29735166	          0.91853859	          0.93308876	         -0.16568431	          0.94867756	          0.78825101	         -0.18841491	          1.07547155	          0.68679901	         -0.19004009	          0.90498079	          0.90057479	         -0.51826774	          0.79456027	          0.76805422	         -0.47341083	          0.81519895	          0.62639783	         -0.46361718	          1.07029116	          0.46748190	         -0.25149895	          0.98436229	          0.50334711	         -0.18285652	          0.90628454	          0.37136827	         -0.24930041	          0.78344679	          0.39837004	         -0.38702865	          0.65071524	          0.35319710	         -0.42894890	          0.63764769	          0.23641044	         -0.36359133	          0.72499049	          0.37462161	         -0.23891449	          0.88313277	          0.19095123	         -0.26445203	          0.83487655	          0.20792142	         -0.16864715	          0.45551423	          0.19355004	         -0.32899054	          0.65229841	          0.06364550	         -0.32039279	          0.58420538	          0.04580118	         -0.40982581	          0.97707181	          1.51923952	         -0.51982807	          0.96317711	          1.51585740	         -0.19472545	          1.03110908	          1.47794961	         -0.31900788	          0.91405926	          1.54602806	         -0.36607685	          0.82944398	          1.45597260	         -0.14862442	          0.84868913	          1.39688571	         -0.09967311	          0.75518466	          1.35435559	         -0.06669155	          0.70145094	          1.31482645	         -0.04038243	          0.70205475	          1.27808454	         -0.12286274	          0.88492090	          1.41747320	         -0.57765608	          0.91742499	          1.33968888	         -0.59621311	          0.84931704	          1.27186329	         -0.62330271	          0.83286818	          1.20729085	         -0.64207084	          0.81237192	          1.18820689	         -0.55247148	          0.76603070	          1.22725745	         -0.02307309	          0.89788898	          1.11946695	         -0.09032405	          0.85584087	          1.09482435	         -0.04114727	          0.90711945	          1.17099462	         -0.62822710	          1.06375393	          1.21209381	         -0.53088888	          1.07151814	          1.14552477	         -0.55664665	
2.09	        -13.64246545	         -0.11286475	         -0.04486270	          0.96568137	          1.00671560	         -0.35240526	         51.33309764	         -0.92485047	          1.28906779	        -85.27043294	          7.95761545	         -0.43822656	          6.13130364	         -0.45426237	        -22.45399932	         -1.32164892	          2.53196373	         -0.06342867	         -9.15014781	        -43.43773643	        -22.64468927	        -13.70892652	        100.22033770	        111.40397742	        -25.75759422	        -10.99286823	        -12.42149277	        125.83855956	        100.36152566	          0.00000000	          0.00000000	          0.00000000	          0.00000000	          0.00000000	          0.00000000	          0.00000000	          0.00000000	          0.98541770	          1.05279924	         -0.49980077	          0.97839623	          1.04792221	         -0.22150513	          0.83507135	          1.10916605	         -0.41420137	          0.82339725	          1.10952501	         -0.29942566	          0.92163774	          0.94332312	         -0.16404179	          0.95315688	          0.79788956	         -0.18780520	          1.08081141	          0.69872303	         -0.19059282	          0.90732508	          0.90577039	         -0.51758518	          0.78862161	          0.77954484	         -0.47391287	          0.80123615	          0.63721603	         -0.46462543	          1.08895141	          0.47307567	         -0.25230005	          0.99927274	          0.49993548	         -0.18420563	          0.93457124	          0.35940981	         -0.25073365	          0.75952954	          0.40962858	         -0.39061187	          0.62650948	          0.36682976	         -0.43256373	          0.61301030	          0.24862760	         -0.36859704	          0.75498021	          0.34401152	         -0.24279351	          0.93270882	          0.17872520	         -0.26683059	          0.88154813	          0.19002325	         -0.17146088	          0.43310918	          0.21283675	         -0.33490361	          0.61517442	          0.06382112	         -0.32168774	          0.54688882	          0.05035341	         -0.41134574	          0.97855889	          1.52798193	         -0.51815971	          0.95994361	          1.52379942	         -0.19424325	          1.02947289	          1.48625517	         -0.31703023	          0.91333370	          1.55322872	         -0.36555721	          0.82511596	          1.46688282	         -0.15117183	          0.84234816	          1.40692839	         -0.10184506	          0.74729909	          1.36685485	         -0.07123317	          0.69185598	          1.32790619	         -0.04661608	          0.69446872	          1.29134756	         -0.12937006	          0.88788408	          1.42652417	         -0.57806656	          0.92138324	          1.34915288	         -0.59680600	          0.85372593	          1.28119874	         -0.62519065	          0.83840805	          1.21621282	         -0.64457547	          0.81672370	          1.19670798	         -0.55502178	          0.75584205	          1.24051468	         -0.02778747	          0.89093730	          1.13443874	         -0.09101271	          0.84668738	          1.10843372	         -0.04463045	          0.91362368	          1.18323137	         -0.62835697	          1.06542469	          1.23223056	         -0.52767878	          1.07714418	          1.16577842	         -0.55278253	
